<svg width="273" height="273" viewBox="0 0 273 273" fill="none" xmlns="http://www.w3.org/2000/svg">
<path d="M234.609 51.1875V81.0469C234.609 82.1782 234.16 83.2632 233.36 84.0631C232.56 84.8631 231.475 85.3125 230.344 85.3125C229.212 85.3125 228.127 84.8631 227.327 84.0631C226.528 83.2632 226.078 82.1782 226.078 81.0469V51.1875C226.078 50.0562 225.629 48.9712 224.829 48.1712C224.029 47.3713 222.944 46.9219 221.812 46.9219H191.953C190.822 46.9219 189.737 46.4725 188.937 45.6725C188.137 44.8725 187.688 43.7876 187.688 42.6562C187.688 41.5249 188.137 40.44 188.937 39.64C189.737 38.84 190.822 38.3906 191.953 38.3906H221.812C225.206 38.3906 228.461 39.7389 230.861 42.1387C233.261 44.5386 234.609 47.7936 234.609 51.1875ZM230.344 187.688C229.212 187.688 228.127 188.137 227.327 188.937C226.528 189.737 226.078 190.822 226.078 191.953V221.812C226.078 222.944 225.629 224.029 224.829 224.829C224.029 225.629 222.944 226.078 221.812 226.078H191.953C190.822 226.078 189.737 226.528 188.937 227.327C188.137 228.127 187.688 229.212 187.688 230.344C187.688 231.475 188.137 232.56 188.937 233.36C189.737 234.16 190.822 234.609 191.953 234.609H221.812C225.206 234.609 228.461 233.261 230.861 230.861C233.261 228.461 234.609 225.206 234.609 221.812V191.953C234.609 190.822 234.16 189.737 233.36 188.937C232.56 188.137 231.475 187.688 230.344 187.688ZM81.0469 226.078H51.1875C50.0562 226.078 48.9712 225.629 48.1712 224.829C47.3713 224.029 46.9219 222.944 46.9219 221.812V191.953C46.9219 190.822 46.4725 189.737 45.6725 188.937C44.8725 188.137 43.7876 187.688 42.6562 187.688C41.5249 187.688 40.44 188.137 39.64 188.937C38.84 189.737 38.3906 190.822 38.3906 191.953V221.812C38.3906 225.206 39.7389 228.461 42.1387 230.861C44.5386 233.261 47.7936 234.609 51.1875 234.609H81.0469C82.1782 234.609 83.2632 234.16 84.0631 233.36C84.8631 232.56 85.3125 231.475 85.3125 230.344C85.3125 229.212 84.8631 228.127 84.0631 227.327C83.2632 226.528 82.1782 226.078 81.0469 226.078ZM42.6562 85.3125C43.7876 85.3125 44.8725 84.8631 45.6725 84.0631C46.4725 83.2632 46.9219 82.1782 46.9219 81.0469V51.1875C46.9219 50.0562 47.3713 48.9712 48.1712 48.1712C48.9712 47.3713 50.0562 46.9219 51.1875 46.9219H81.0469C82.1782 46.9219 83.2632 46.4725 84.0631 45.6725C84.8631 44.8725 85.3125 43.7876 85.3125 42.6562C85.3125 41.5249 84.8631 40.44 84.0631 39.64C83.2632 38.84 82.1782 38.3906 81.0469 38.3906H51.1875C47.7936 38.3906 44.5386 39.7389 42.1387 42.1387C39.7389 44.5386 38.3906 47.7936 38.3906 51.1875V81.0469C38.3906 82.1782 38.84 83.2632 39.64 84.0631C40.44 84.8631 41.5249 85.3125 42.6562 85.3125ZM187.688 183.422C187.025 183.422 186.372 183.268 185.78 182.972C185.188 182.675 184.672 182.245 184.275 181.716C178.712 174.299 171.499 168.279 163.207 164.133C154.915 159.987 145.771 157.828 136.5 157.828C127.229 157.828 118.085 159.987 109.793 164.133C101.501 168.279 94.2876 174.299 88.725 181.716C88.0462 182.621 87.0357 183.219 85.9158 183.379C84.7958 183.539 83.6582 183.248 82.7531 182.569C81.8481 181.89 81.2497 180.879 81.0897 179.76C80.9298 178.64 81.2212 177.502 81.9 176.597C90.557 164.985 102.702 156.446 116.558 152.229C109.4 147.878 103.862 141.305 100.788 133.513C97.7137 125.72 97.2728 117.136 99.5322 109.07C101.792 101.004 106.627 93.8975 113.302 88.8356C119.976 83.7738 128.123 81.0339 136.5 81.0339C144.877 81.0339 153.024 83.7738 159.698 88.8356C166.373 93.8975 171.208 101.004 173.468 109.07C175.727 117.136 175.286 125.72 172.212 133.513C169.138 141.305 163.6 147.878 156.442 152.229C170.298 156.446 182.443 164.985 191.1 176.597C191.575 177.231 191.865 177.984 191.936 178.773C192.007 179.562 191.857 180.355 191.503 181.064C191.149 181.772 190.604 182.368 189.93 182.785C189.256 183.201 188.48 183.422 187.688 183.422ZM136.5 149.297C142.406 149.297 148.179 147.546 153.089 144.265C157.999 140.984 161.826 136.32 164.086 130.864C166.346 125.408 166.938 119.404 165.786 113.612C164.634 107.82 161.79 102.5 157.614 98.3237C153.438 94.1478 148.117 91.304 142.325 90.1519C136.533 88.9997 130.529 89.591 125.073 91.851C119.617 94.111 114.954 97.9382 111.673 102.849C108.392 107.759 106.641 113.532 106.641 119.438C106.641 127.357 109.787 134.952 115.386 140.551C120.986 146.151 128.581 149.297 136.5 149.297Z" fill="black"/>
</svg>
